# xmcd CD database file
#
# Track frame offsets:
#	150
#	26281
#	56995
#	88784
#	113411
#	144892
#	172118
#	199984
#	222686
#	250188
#
# Disc length: 3695 seconds
#
# Revision: 0
# Processed by: cddbd v1.5.2PL0 Copyright (c) Steve Scherf et al.
# Submitted via: CDex 1.70beta2
#
DISCID=900e6d0a
DTITLE=Reflections - Raindrop Dreams
DYEAR=2009
DGENRE=New Age
TTITLE0=Settling In
TTITLE1=Quiet Reflection
TTITLE2=Entranced by the Rain
TTITLE3=Water Dance
TTITLE4=Visions in Blue
TTITLE5=A Gradual Descent
TTITLE6=Rhythms in Reverie
TTITLE7=Until the Night is Done
TTITLE8=The Perfect Journey
TTITLE9=Safe and Sound
EXTD=YEAR: 2009
EXTT0=
EXTT1=
EXTT2=
EXTT3=
EXTT4=
EXTT5=
EXTT6=
EXTT7=
EXTT8=
EXTT9=
PLAYORDER=
